<?xml version="1.0" standalone="no"?>
<!DOCTYPE svg PUBLIC "-//W3C//DTD SVG 20010904//EN"
 "http://www.w3.org/TR/2001/REC-SVG-20010904/DTD/svg10.dtd">
<svg version="1.0" xmlns="http://www.w3.org/2000/svg"
 width="659.000000pt" height="432.000000pt" viewBox="0 0 659.000000 432.000000"
 preserveAspectRatio="xMidYMid meet">

<g transform="translate(0.000000,432.000000) scale(0.100000,-0.100000)"
fill="#000000" stroke="none">
<path d="M1542 2820 c-54 -13 -107 -55 -130 -102 -35 -75 -44 -158 -40 -378
l3 -205 -32 -59 c-40 -71 -41 -104 -8 -193 61 -161 168 -298 262 -333 72 -27
174 -27 247 1 87 32 177 144 246 307 40 93 40 156 3 220 l-28 47 -6 255 c-3
150 -11 270 -18 291 -29 93 -103 150 -194 153 -49 1 -51 0 -60 -31 -11 -36
-45 -49 -96 -38 -23 5 -33 15 -41 41 -10 30 -16 34 -43 33 -18 -1 -47 -5 -65
-9z m90 -54 c12 -24 25 -35 47 -39 36 -7 41 -31 11 -47 -18 -10 -20 -21 -20
-105 0 -84 2 -96 20 -107 21 -13 26 -37 11 -53 -5 -6 -11 -36 -14 -67 -5 -50
-3 -58 11 -58 16 -1 16 -2 1 -13 -13 -9 -15 -25 -11 -70 2 -31 8 -57 13 -57 5
0 9 -25 9 -55 0 -40 4 -55 14 -55 9 0 15 20 20 68 4 37 9 87 12 111 5 31 2 46
-7 53 -11 7 -11 11 -1 15 15 6 15 47 0 112 -11 47 -10 53 10 74 19 20 22 35
22 104 0 67 -3 83 -20 98 -27 25 -25 43 6 51 17 4 31 18 40 40 12 28 20 34 43
34 41 0 81 -17 113 -47 l27 -26 -21 -28 c-18 -24 -20 -36 -13 -91 4 -35 6 -94
5 -132 -1 -62 1 -71 25 -96 l26 -27 -44 -169 c-25 -93 -57 -221 -71 -285 -32
-137 -60 -199 -99 -217 -37 -18 -102 -19 -151 -2 -32 10 -42 21 -61 64 -13 28
-35 101 -49 161 -27 120 -79 321 -102 400 -14 48 -14 50 11 73 27 25 27 27 25
115 -1 31 4 82 11 112 12 52 11 57 -11 87 -17 23 -20 35 -13 47 17 27 86 61
124 61 30 0 38 -5 51 -34z m-208 -706 c17 -58 39 -220 32 -228 -8 -8 -42 22
-78 68 -47 59 -51 107 -13 162 14 20 25 42 25 47 0 6 4 11 9 11 4 0 16 -27 25
-60z m671 -58 c4 -18 1 -40 -6 -54 -17 -33 -89 -118 -100 -118 -21 0 2 188 32
267 l10 26 28 -45 c16 -25 32 -59 36 -76z"/>
<path d="M3373 2457 c-35 -19 -39 -24 -27 -35 10 -10 14 -30 12 -65 l-3 -52
-65 -5 c-110 -8 -172 -65 -173 -159 -1 -58 24 -106 66 -127 30 -16 63 -19 165
-15 24 1 57 -1 73 -4 28 -6 28 -6 18 23 -6 17 -9 117 -7 245 2 140 -1 217 -7
217 -5 -1 -29 -11 -52 -23z m-33 -187 c17 -17 20 -33 20 -112 0 -51 -3 -103
-6 -116 -12 -44 -96 -37 -128 12 -40 63 -43 162 -4 211 25 32 88 35 118 5z"/>
<path d="M4490 2425 c-7 -8 -10 -25 -6 -39 11 -45 71 -45 82 0 8 30 -11 54
-41 54 -12 0 -28 -7 -35 -15z"/>
<path d="M4275 2378 c-39 -18 -52 -28 -37 -28 22 0 22 0 22 -175 l0 -174 35
-7 c19 -3 56 -2 83 2 l47 9 -43 3 -43 3 3 137 3 137 40 6 40 6 -42 2 -42 1 -3
53 -3 54 -60 -29z"/>
<path d="M2435 2286 c-94 -41 -126 -177 -58 -248 43 -45 121 -58 187 -32 17 7
19 3 14 -41 -4 -30 -13 -54 -24 -62 -29 -21 -72 -16 -99 13 -20 21 -30 25 -54
19 -39 -8 -40 -30 -1 -50 60 -31 171 -6 233 53 l27 26 0 158 0 158 -26 10
c-37 14 -164 12 -199 -4z m123 -12 c21 -14 22 -23 22 -128 0 -74 -4 -116 -12
-124 -19 -19 -63 -14 -93 10 -67 52 -76 199 -16 245 22 17 72 16 99 -3z"/>
<path d="M2720 2290 c11 -7 16 -38 20 -131 5 -117 6 -121 33 -145 35 -30 68
-30 134 0 l52 25 3 -22 c2 -12 9 -22 16 -21 6 1 31 2 54 3 37 1 40 2 24 14
-16 12 -18 28 -15 150 l4 137 -55 0 c-42 0 -51 -3 -42 -12 8 -8 12 -49 12
-120 l0 -108 -32 -20 c-40 -24 -71 -25 -92 -4 -13 12 -16 40 -16 140 l0 124
-57 0 c-41 0 -53 -3 -43 -10z"/>
<path d="M3610 2289 c-61 -25 -100 -85 -100 -155 0 -58 28 -107 73 -125 35
-15 109 -17 145 -5 20 8 22 5 22 -23 0 -34 -15 -71 -34 -83 -24 -16 -67 -8
-91 18 -20 21 -30 25 -54 19 -39 -8 -40 -30 -1 -50 58 -30 155 -10 223 46 l37
30 0 159 0 158 -31 11 c-39 13 -155 13 -189 0z m119 -16 c20 -17 22 -26 19
-133 l-3 -115 -28 -9 c-36 -13 -72 6 -104 53 -39 57 -26 196 19 214 28 12 77
6 97 -10z"/>
<path d="M3964 2275 c-72 -43 -97 -143 -54 -213 43 -71 168 -92 243 -42 20 13
24 19 12 16 -62 -16 -77 -17 -109 -6 -42 13 -75 56 -83 105 l-6 35 87 0 c48 0
96 5 107 10 19 11 25 43 13 75 -19 49 -142 61 -210 20z m128 -2 c24 -27 31
-62 18 -78 -9 -10 -33 -15 -76 -15 -60 0 -64 2 -64 23 0 12 9 37 20 55 16 26
26 32 53 32 20 0 40 -7 49 -17z"/>
<path d="M4474 2287 c15 -11 17 -29 14 -150 l-3 -137 45 0 45 0 -3 150 -3 150
-56 0 c-49 0 -54 -2 -39 -13z"/>
<path d="M4715 2284 c-48 -25 -69 -61 -73 -129 -5 -98 41 -149 145 -161 l48
-5 -38 21 c-76 42 -115 211 -61 265 25 25 73 19 103 -14 34 -36 51 -91 51
-164 0 -48 -4 -58 -26 -76 -22 -17 -23 -21 -9 -21 28 0 86 49 101 86 30 71 7
150 -55 191 -41 28 -138 31 -186 7z"/>
<path d="M5067 2284 c-37 -20 -51 -57 -36 -101 12 -38 44 -58 119 -74 66 -14
91 -57 54 -93 -9 -10 -11 -16 -4 -16 6 0 25 13 41 29 59 60 26 127 -77 157
-33 9 -65 21 -71 26 -19 15 -16 65 5 77 27 16 0 12 -31 -5z"/>
<path d="M5157 2290 c21 -7 39 -22 49 -42 l16 -31 19 24 c25 34 6 51 -63 55
-48 3 -50 3 -21 -6z"/>
<path d="M5035 2058 c-14 -25 -15 -32 -4 -39 23 -15 82 -29 119 -29 34 1 34 1
-15 18 -38 13 -54 25 -66 49 l-16 31 -18 -30z"/>
</g>
</svg>
