<?xml version="1.0" standalone="no"?>
<!DOCTYPE svg PUBLIC "-//W3C//DTD SVG 20010904//EN"
 "http://www.w3.org/TR/2001/REC-SVG-20010904/DTD/svg10.dtd">
<svg version="1.0" xmlns="http://www.w3.org/2000/svg"
 width="595.000000pt" height="391.000000pt" viewBox="0 0 595.000000 391.000000"
 preserveAspectRatio="xMidYMid meet">

<g transform="translate(0.000000,391.000000) scale(0.100000,-0.100000)"
fill="#000000" stroke="none">
<path d="M1221 2575 c-58 -18 -96 -57 -123 -124 -21 -52 -23 -73 -24 -297 l-2
-240 -31 -59 c-37 -70 -39 -104 -6 -190 52 -138 164 -293 233 -322 89 -37 211
-34 292 7 61 31 127 115 187 237 69 141 74 191 28 268 l-30 50 0 235 c-1 215
-3 241 -23 302 -26 78 -68 120 -138 137 -74 19 -92 15 -108 -24 -26 -61 -104
-61 -133 0 -19 40 -45 44 -122 20z m106 -50 c12 -25 23 -35 40 -35 33 0 42
-30 15 -48 -20 -13 -22 -23 -22 -103 0 -78 2 -89 21 -103 17 -12 20 -21 15
-43 -4 -15 -11 -52 -15 -80 -6 -44 -5 -53 8 -53 13 0 13 -2 2 -9 -10 -6 -11
-22 -7 -62 4 -30 9 -80 12 -111 8 -81 30 -78 38 5 3 34 9 84 12 111 5 35 3 51
-7 57 -10 6 -11 9 -1 9 15 0 16 55 0 113 -10 40 -9 46 10 65 19 19 22 33 22
102 0 68 -3 82 -21 99 -25 23 -19 51 11 51 13 0 24 11 34 35 13 30 20 35 48
35 36 0 105 -35 122 -62 8 -13 5 -22 -13 -42 -19 -20 -22 -31 -17 -58 4 -18
10 -79 14 -136 6 -90 10 -105 29 -120 l22 -17 -28 -101 c-16 -56 -48 -182 -71
-280 -53 -222 -68 -257 -121 -278 -22 -9 -53 -16 -69 -16 -50 0 -109 30 -127
64 -9 17 -49 161 -89 321 l-73 290 24 25 c22 23 25 35 25 111 1 46 5 103 9
127 7 38 6 47 -15 71 l-23 28 27 26 c33 31 66 46 110 46 27 1 35 -4 49 -34z
m-202 -695 c9 -30 19 -93 22 -139 6 -80 5 -83 -13 -71 -10 7 -36 33 -56 59
-47 57 -51 107 -13 163 14 20 25 43 25 49 0 26 18 -7 35 -61z m628 11 c42 -75
37 -107 -27 -177 -30 -32 -57 -56 -60 -53 -16 16 33 279 52 279 4 0 19 -22 35
-49z"/>
<path d="M3020 2219 c-30 -16 -46 -28 -35 -27 18 3 20 -4 23 -59 l3 -63 -57 0
c-63 0 -116 -24 -148 -67 -27 -36 -33 -121 -12 -161 30 -58 56 -67 188 -67 95
0 117 3 113 13 -3 8 -5 115 -5 238 0 123 -3 224 -7 224 -5 -1 -33 -14 -63 -31z
m-27 -173 c14 -11 17 -30 17 -129 l0 -117 -26 -6 c-15 -4 -38 -3 -53 2 -74 27
-103 181 -45 245 20 22 80 25 107 5z"/>
<path d="M4126 2194 c-9 -8 -16 -22 -16 -29 0 -7 7 -21 16 -29 30 -30 74 -13
74 29 0 42 -44 59 -74 29z"/>
<path d="M3915 2150 c-41 -19 -53 -29 -37 -29 22 -1 22 -2 22 -171 l0 -169 39
-11 c29 -8 47 -7 77 5 l39 15 -37 -3 -38 -3 0 137 0 138 38 4 37 4 -37 1 -37
2 -3 54 -3 54 -60 -28z"/>
<path d="M2105 2050 c-56 -29 -78 -63 -83 -130 -4 -68 21 -114 75 -136 36 -16
101 -15 136 0 15 7 17 2 17 -36 0 -77 -69 -109 -116 -54 -19 21 -29 25 -53 20
-66 -13 -16 -64 62 -64 31 0 65 9 100 26 91 46 87 36 87 216 l0 158 -26 10
c-46 18 -155 12 -199 -10z m128 -4 c14 -11 17 -30 17 -129 l0 -117 -26 -6
c-15 -4 -38 -3 -53 2 -74 27 -103 181 -45 245 20 22 80 25 107 5z"/>
<path d="M2394 2054 c12 -12 16 -38 16 -115 0 -104 13 -150 45 -163 34 -12 83
-5 129 19 l46 24 0 -24 c0 -26 8 -29 56 -19 l29 5 -3 145 -3 144 -52 0 c-40 0
-48 -3 -39 -12 8 -8 12 -49 12 -118 l0 -106 -29 -17 c-16 -9 -42 -17 -59 -17
-50 0 -57 20 -57 152 l0 118 -53 0 c-49 0 -52 -1 -38 -16z"/>
<path d="M3255 2054 c-86 -45 -117 -129 -78 -211 28 -61 134 -91 206 -59 14 7
17 3 17 -22 0 -90 -80 -127 -130 -61 -12 15 -22 18 -48 13 -39 -8 -40 -16 -6
-43 48 -38 145 -23 222 35 l32 25 0 163 0 164 -31 6 c-58 11 -153 6 -184 -10z
m123 -10 c20 -14 22 -23 22 -123 0 -70 -4 -111 -12 -119 -33 -33 -109 3 -134
64 -27 64 -10 172 28 187 27 11 74 6 96 -9z"/>
<path d="M3630 2059 c-124 -50 -127 -224 -4 -275 64 -27 159 -12 194 31 14 18
14 18 -10 2 -30 -21 -91 -22 -130 -2 -57 30 -85 136 -53 202 27 57 100 58 123
2 11 -25 11 -35 1 -51 -11 -18 -9 -19 26 -16 27 2 39 8 41 21 7 34 -8 67 -38
82 -33 17 -112 19 -150 4z"/>
<path d="M4103 2059 c15 -9 17 -27 17 -149 l0 -140 52 0 c40 0 49 3 40 12 -8
8 -12 56 -12 150 l0 138 -57 0 c-44 -1 -54 -3 -40 -11z"/>
<path d="M4336 2051 c-45 -30 -66 -70 -66 -127 0 -92 66 -155 160 -153 45 1
45 1 13 10 -41 12 -78 60 -94 122 -13 52 -8 120 11 142 16 19 70 19 97 0 52
-36 78 -201 39 -244 -25 -28 -4 -28 35 0 85 60 77 194 -13 249 -44 27 -142 27
-182 1z"/>
<path d="M4695 2058 c-32 -17 -45 -39 -45 -75 0 -48 34 -78 104 -93 69 -14 96
-45 77 -87 -12 -26 -12 -26 11 -11 82 54 41 154 -71 172 -22 3 -47 13 -55 22
-21 21 -20 61 2 73 23 14 2 13 -23 -1z"/>
<path d="M4765 2063 c26 -6 65 -42 65 -60 0 -7 3 -13 6 -13 9 0 33 33 34 46 0
17 -47 34 -88 33 -21 -1 -28 -3 -17 -6z"/>
<path d="M4656 1831 c-16 -31 -16 -31 11 -43 15 -6 55 -12 88 -14 57 -3 58 -3
17 6 -53 11 -59 15 -82 52 l-18 30 -16 -31z"/>
</g>
</svg>
