<?xml version="1.0" standalone="no"?>
<!DOCTYPE svg PUBLIC "-//W3C//DTD SVG 20010904//EN"
 "http://www.w3.org/TR/2001/REC-SVG-20010904/DTD/svg10.dtd">
<svg version="1.0" xmlns="http://www.w3.org/2000/svg"
 width="593.000000pt" height="335.000000pt" viewBox="0 0 593.000000 335.000000"
 preserveAspectRatio="xMidYMid meet">

<g transform="translate(0.000000,335.000000) scale(0.100000,-0.100000)"
fill="#000000" stroke="none">
<path d="M0 1675 l0 -1675 2965 0 2965 0 0 1658 c0 1594 -1 1660 -18 1675 -17
16 -237 17 -2965 17 l-2947 0 0 -1675z m1334 321 c11 -28 22 -36 49 -41 44 -9
71 6 87 46 13 31 14 31 68 25 65 -8 101 -25 136 -66 51 -61 60 -113 62 -377
l3 -241 32 -57 c43 -77 38 -124 -29 -258 -64 -129 -131 -213 -197 -246 -42
-22 -64 -25 -140 -26 -79 0 -97 3 -148 28 -71 35 -145 128 -209 263 -36 74
-43 99 -43 149 0 49 5 67 27 100 l27 40 4 250 c3 230 5 254 25 306 12 30 35
68 51 83 31 30 97 54 148 55 28 1 35 -4 47 -33z m1756 -539 c0 -173 3 -236 13
-246 10 -11 7 -12 -13 -5 -14 5 -65 8 -115 6 -106 -2 -147 9 -175 48 -77 108
12 250 157 250 l53 0 0 60 c0 59 -1 60 -27 60 -23 0 -17 5 32 29 33 16 63 30
68 30 4 1 7 -104 7 -232z m1098 181 c27 -27 7 -78 -29 -78 -21 0 -49 26 -49
45 0 35 53 58 78 33z m-173 -128 c19 0 35 -4 35 -10 0 -5 -16 -10 -35 -10
l-35 0 0 -135 0 -135 33 -1 32 -1 -30 -9 c-16 -5 -49 -7 -72 -4 l-43 6 -2 172
c-3 171 -3 172 -25 171 -13 0 -23 1 -23 3 0 1 28 16 63 31 l62 28 3 -53 3 -53
34 0z m-1716 -11 l32 -11 -3 -160 c-3 -179 0 -172 -96 -218 -66 -31 -121 -35
-159 -11 -41 26 -41 36 -1 50 29 10 34 9 52 -13 26 -30 59 -40 85 -27 21 12
41 60 41 99 0 19 -3 23 -17 16 -10 -4 -43 -9 -73 -11 -98 -7 -158 57 -147 155
6 56 32 91 87 120 50 25 144 30 199 11z m181 -98 c0 -141 7 -161 58 -161 20 0
48 7 60 16 20 14 22 23 22 123 0 70 -4 111 -12 119 -9 9 0 12 42 12 l55 0 0
-150 0 -150 -42 0 c-36 0 -43 3 -43 20 0 24 -4 24 -33 6 -38 -25 -101 -35
-134 -21 -41 17 -53 57 -53 176 0 83 -3 100 -17 108 -14 8 -4 10 40 11 l57 0
0 -109z m978 95 c9 -5 12 -52 12 -165 0 -151 -1 -158 -22 -178 -43 -39 -111
-67 -165 -67 -44 -1 -57 3 -79 26 l-27 26 38 11 c34 9 39 8 59 -16 16 -19 33
-26 56 -26 42 0 60 24 60 80 0 41 -1 43 -21 33 -28 -16 -102 -15 -136 2 -70
34 -96 141 -50 209 12 18 40 44 62 57 35 20 51 22 120 19 45 -2 86 -7 93 -11z
m321 -1 c31 -15 41 -33 41 -70 0 -35 -28 -45 -124 -45 -47 0 -86 -3 -86 -7 0
-33 26 -86 51 -107 37 -31 110 -36 149 -10 25 17 24 16 -2 -11 -29 -30 -96
-43 -162 -31 -109 21 -150 155 -74 241 45 52 146 72 207 40z m421 -123 c0 -94
4 -142 12 -150 9 -9 0 -12 -40 -12 l-52 0 0 140 c0 92 -4 140 -11 140 -5 0 -7
5 -4 10 3 6 26 10 51 10 l44 0 0 -138z m308 124 c97 -50 115 -168 38 -244 -31
-31 -42 -36 -96 -40 -111 -8 -171 38 -178 138 -4 65 18 108 70 140 39 24 126
27 166 6z m343 -1 c24 -13 28 -19 19 -35 -17 -32 -28 -32 -44 -2 -17 33 -34
42 -75 42 -48 0 -68 -42 -33 -72 9 -9 43 -23 74 -32 63 -18 98 -52 98 -95 0
-34 -25 -70 -59 -82 -38 -15 -113 -13 -155 5 l-36 15 17 30 17 29 18 -28 c21
-36 47 -50 91 -50 40 0 60 19 55 52 -3 25 -32 43 -97 59 -91 22 -122 101 -60
153 25 21 41 26 85 26 30 0 68 -7 85 -15z"/>
<path d="M1196 1977 c-56 -32 -63 -48 -37 -84 19 -26 21 -34 12 -74 -6 -24
-11 -81 -11 -127 0 -76 -2 -85 -25 -107 l-26 -23 25 -89 c14 -48 47 -178 74
-288 27 -110 55 -212 61 -227 16 -42 66 -68 129 -68 111 0 132 31 188 272 19
83 50 208 70 277 l35 125 -23 17 c-21 16 -24 29 -29 121 -3 57 -10 117 -14
134 -5 24 -2 36 19 61 l25 30 -22 20 c-33 30 -82 53 -115 53 -23 0 -32 -7 -45
-35 -11 -23 -24 -35 -37 -35 -30 0 -35 -25 -11 -49 18 -18 21 -33 21 -105 0
-75 -2 -87 -21 -100 -17 -12 -20 -21 -15 -43 4 -15 11 -52 15 -80 6 -44 5 -53
-8 -53 -14 -1 -14 -2 0 -10 13 -7 14 -19 6 -67 -4 -32 -11 -84 -14 -115 -7
-81 -29 -78 -37 5 -3 34 -9 86 -12 116 -5 39 -3 56 7 62 11 7 11 9 -2 9 -13 0
-14 9 -8 53 4 28 11 65 15 80 5 22 2 31 -15 43 -19 13 -21 25 -21 99 0 73 3
87 21 104 26 24 19 51 -14 51 -17 0 -28 10 -40 35 -14 30 -22 35 -49 35 -18 0
-51 -10 -72 -23z"/>
<path d="M1057 1281 c-37 -66 -35 -102 7 -160 19 -25 44 -55 57 -66 l22 -20
-6 85 c-6 79 -30 185 -46 202 -3 4 -19 -15 -34 -41z"/>
<path d="M1706 1320 c-29 -79 -37 -114 -43 -186 -4 -57 -3 -84 5 -84 6 0 31
26 56 58 35 43 46 65 46 92 0 41 -56 144 -64 120z"/>
<path d="M2882 1477 c-68 -72 -17 -247 72 -247 51 0 56 13 56 131 0 100 -2
109 -22 123 -33 23 -81 20 -106 -7z"/>
<path d="M2129 1487 c-43 -33 -52 -122 -20 -194 21 -46 45 -63 88 -63 47 0 53
14 53 131 0 100 -2 109 -22 123 -27 19 -77 20 -99 3z"/>
<path d="M3282 1493 c-23 -9 -42 -61 -42 -113 0 -96 44 -155 112 -148 l33 3 3
119 c2 104 0 120 -15 132 -18 13 -66 17 -91 7z"/>
<path d="M3647 1482 c-16 -17 -37 -65 -37 -83 0 -5 29 -9 64 -9 71 0 92 14 81
52 -17 56 -75 77 -108 40z"/>
<path d="M4364 1479 c-15 -16 -19 -35 -18 -83 1 -97 51 -176 110 -176 59 0 80
74 49 177 -27 90 -97 131 -141 82z"/>
</g>
</svg>
